<svg width="20" height="16" viewBox="0 0 20 16" fill="none" xmlns="http://www.w3.org/2000/svg">
<path fill-rule="evenodd" clip-rule="evenodd" d="M1.17157 1.17157C1.19209e-07 2.34315 0 4.22876 0 8C0 11.7712 1.19209e-07 13.6569 1.17157 14.8284C2.34315 16 4.22876 16 8 16H12C15.7712 16 17.6569 16 18.8284 14.8284C20 13.6569 20 11.7712 20 8C20 4.22876 20 2.34315 18.8284 1.17157C17.6569 -1.19209e-07 15.7712 0 12 0H8C4.22876 0 2.34315 -1.19209e-07 1.17157 1.17157ZM6 9C6.55228 9 7 8.5523 7 8C7 7.4477 6.55228 7 6 7C5.44772 7 5 7.4477 5 8C5 8.5523 5.44772 9 6 9ZM11 8C11 8.5523 10.5523 9 10 9C9.4477 9 9 8.5523 9 8C9 7.4477 9.4477 7 10 7C10.5523 7 11 7.4477 11 8ZM14 9C14.5523 9 15 8.5523 15 8C15 7.4477 14.5523 7 14 7C13.4477 7 13 7.4477 13 8C13 8.5523 13.4477 9 14 9Z" fill="#3D3D3D"/>
</svg>
