<svg width="165" height="206" viewBox="0 0 165 206" fill="none" xmlns="http://www.w3.org/2000/svg">
<path d="M108.237 80.4147V129.186H62.8477V80.3047C70.4795 84.4583 78.1113 88.6159 85.7432 92.7696L108.237 80.4147Z" fill="#10403B"/>
<path d="M97.9058 159.304C96.8612 161.955 96.2917 164.841 96.2917 167.858C96.2917 175.399 99.8557 182.109 105.398 186.42L105.005 186.815L85.9275 205.772V169.059C86.8083 168.681 87.4228 167.814 87.4228 166.8C87.4228 165.79 86.8083 164.923 85.9275 164.548C85.6285 164.418 85.3007 164.349 84.9525 164.349C84.6699 164.349 84.3995 164.398 84.1496 164.483C83.1828 164.813 82.4864 165.729 82.4864 166.8C82.4864 167.875 83.1828 168.791 84.1496 169.12V206L65.0311 186.998C65.113 186.937 65.195 186.876 65.2769 186.815C71.1513 182.528 74.9611 175.615 74.9611 167.818C74.9611 164.43 74.2442 161.214 72.9497 158.307C70.8687 153.633 67.3047 149.752 62.8477 147.269V136.17H108.237V147.399C103.559 150.062 99.8803 154.264 97.9058 159.304Z" fill="#10403B"/>
<path d="M122.202 21.3974L107.532 29.9588L105.296 31.2649L88.0495 21.0698C88.0535 21.0289 88.0535 20.9879 88.0535 20.947C88.0535 19.4321 86.8536 18.2037 85.3737 18.2037C83.8938 18.2037 82.6939 19.4321 82.6939 20.947C82.6939 22.466 83.8938 23.6943 85.3737 23.6943C85.9656 23.6943 86.5136 23.4978 86.9576 23.1621L102.968 32.6242L87.3455 41.7384L85.7977 40.8499L84.0098 41.8981L63.2156 29.7622L48.8809 21.3974L85.5417 0L122.202 21.3974Z" fill="#10403B"/>
<path d="M108.237 35.1012V57.7041L85.7432 69.8311L62.8477 57.4033V34.916C70.4713 39.0085 78.0908 43.0971 85.7145 47.1895C92.736 43.4211 99.7533 39.6565 106.775 35.888L108.237 35.1012Z" fill="#10403B"/>
<g clip-path="url(#clip0_3625_1773)">
<path d="M150.042 47.2406C149.613 47.4984 149.179 47.7602 148.75 48.018C127.838 60.6099 106.919 73.2017 86.007 85.7936C79.2545 81.8662 72.4981 77.9388 65.7457 74.0114C44.7337 84.3395 23.7218 94.6716 2.7098 105C1.80653 103.312 0.903266 101.62 0 99.9323C21.8309 88.9194 43.6578 77.9025 65.4888 66.8897L85.8785 78.1523C105.614 66.4829 125.349 54.8174 145.085 43.144C145.731 42.7653 146.377 42.3827 147.024 42L150.042 47.2406Z" fill="#10403B"/>
<path d="M164.001 35C160.599 40.8346 157.193 46.6691 153.791 52.4999C150.214 47.0146 146.641 41.5292 143.064 36.0439C150.043 35.6947 157.022 35.3492 164.001 35Z" fill="#10403B"/>
</g>
<defs>
<clipPath id="clip0_3625_1773">
<rect width="164" height="70" fill="white" transform="translate(0 35)"/>
</clipPath>
</defs>
</svg>
