<svg width="164" height="206" viewBox="0 0 164 206" fill="none" xmlns="http://www.w3.org/2000/svg">
<path d="M108.237 80.4152V129.186H62.847V80.3052C70.4788 84.4588 78.1106 88.6164 85.7425 92.7701L108.237 80.4152Z" fill="#FEFEFE"/>
<path d="M97.9051 159.304C96.8605 161.954 96.2911 164.841 96.2911 167.858C96.2911 175.398 99.855 182.108 105.398 186.42L105.004 186.815L85.9268 205.772V169.059C86.8076 168.681 87.4221 167.813 87.4221 166.799C87.4221 165.79 86.8076 164.923 85.9268 164.548C85.6278 164.418 85.3001 164.348 84.9519 164.348C84.6692 164.348 84.3988 164.397 84.1489 164.483C83.1822 164.813 82.4857 165.729 82.4857 166.799C82.4857 167.874 83.1822 168.79 84.1489 169.12V206L65.0304 186.998C65.1123 186.937 65.1943 186.876 65.2762 186.815C71.1506 182.528 74.9604 175.614 74.9604 167.817C74.9604 164.43 74.2435 161.213 72.949 158.306C70.868 153.632 67.304 149.752 62.847 147.269V136.17H108.237V147.399C103.558 150.062 99.8796 154.263 97.9051 159.304Z" fill="#FEFEFE"/>
<path d="M122.202 21.3974L105.296 31.2649L88.0494 21.0698C88.0534 21.0289 88.0534 20.9879 88.0534 20.947C88.0534 19.4321 86.8535 18.2037 85.3737 18.2037C83.8938 18.2037 82.6939 19.4321 82.6939 20.947C82.6939 22.466 83.8938 23.6943 85.3737 23.6943C85.9656 23.6943 86.5136 23.4978 86.9575 23.1621L102.968 32.6242L87.3455 41.7384L85.7976 40.8499L84.0098 41.8981L48.8808 21.3974L85.5416 0L122.202 21.3974Z" fill="#FEFEFE"/>
<path d="M108.237 35.1007V57.7037L85.7425 69.8306L62.847 57.4028V34.9155C70.4706 39.008 78.0902 43.0966 85.7138 47.189C92.7353 43.4206 99.7526 39.656 106.774 35.8875L108.237 35.1007Z" fill="#FEFEFE"/>
<path d="M150.042 47.2409C149.613 47.4987 149.179 47.7605 148.75 48.0183C127.838 60.6102 106.919 73.2021 86.007 85.794C79.2545 81.8666 72.4981 77.9392 65.7457 74.0117C44.7337 84.3398 23.7218 94.6719 2.7098 105C1.80653 103.312 0.903266 101.62 0 99.9326C21.8309 88.9198 43.6578 77.9029 65.4888 66.89L85.8785 78.1526C105.614 66.4832 125.349 54.8178 145.085 43.1443C145.731 42.7657 146.377 42.383 147.024 42.0004L150.042 47.2409Z" fill="#FEFEFE"/>
<path d="M164 35C160.598 40.8346 157.192 46.6691 153.79 52.4999C150.213 47.0146 146.641 41.5293 143.064 36.0439C150.043 35.6947 157.021 35.3492 164 35Z" fill="#FEFEFE"/>
</svg>
