<svg width="74" height="206" viewBox="0 0 74 206" fill="none" xmlns="http://www.w3.org/2000/svg">
<path d="M59.3564 80.4157V129.187H13.9668V80.3057C21.5986 84.4593 29.2305 88.6169 36.8623 92.7706L59.3564 80.4157Z" fill="#10403B"/>
<path d="M49.0249 159.304C47.9803 161.955 47.4109 164.841 47.4109 167.858C47.4109 175.399 50.9749 182.109 56.5175 186.42L56.1242 186.815L37.0467 205.772V169.059C37.9274 168.681 38.5419 167.814 38.5419 166.8C38.5419 165.79 37.9274 164.923 37.0467 164.548C36.7476 164.418 36.4199 164.349 36.0717 164.349C35.789 164.349 35.5187 164.398 35.2688 164.483C34.302 164.813 33.6056 165.729 33.6056 166.8C33.6056 167.875 34.302 168.791 35.2688 169.12V206L16.1502 186.998C16.2322 186.937 16.3141 186.876 16.396 186.815C22.2705 182.528 26.0802 175.615 26.0802 167.818C26.0802 164.43 25.3633 161.214 24.0688 158.307C21.9878 153.633 18.4238 149.752 13.9668 147.269V136.17H59.3564V147.399C54.6781 150.062 50.9995 154.264 49.0249 159.304Z" fill="#10403B"/>
<path d="M73.3216 21.3974L58.6509 29.9588L56.4151 31.2649L39.1686 21.0698C39.1726 21.0289 39.1726 20.9879 39.1726 20.947C39.1726 19.4321 37.9727 18.2037 36.4928 18.2037C35.013 18.2037 33.8131 19.4321 33.8131 20.947C33.8131 22.466 35.013 23.6943 36.4928 23.6943C37.0848 23.6943 37.6327 23.4978 38.0767 23.1621L54.0873 32.6242L38.4647 41.7384L36.9168 40.8499L35.1289 41.8981L14.3348 29.7622L0 21.3974L36.6608 0L73.3216 21.3974Z" fill="#10403B"/>
<path d="M59.3564 35.1012V57.7041L36.8623 69.8311L13.9668 57.4033V34.916C21.5904 39.0085 29.21 43.0971 36.8336 47.1895C43.8551 43.4211 50.8725 39.6565 57.8939 35.888L59.3564 35.1012Z" fill="#10403B"/>
</svg>
