<svg width="390" height="844" viewBox="0 0 390 844" fill="none" xmlns="http://www.w3.org/2000/svg">
<g clip-path="url(#clip0_3625_1747)">
<rect width="390" height="844" fill="#FEFEFE"/>
<path d="M221.237 375.416V424.187H175.848V375.306C183.479 379.459 191.111 383.617 198.743 387.771L221.237 375.416Z" fill="#10403B"/>
<path d="M210.906 454.304C209.861 456.955 209.292 459.841 209.292 462.858C209.292 470.399 212.856 477.109 218.398 481.42L218.005 481.815L198.928 500.772V464.059C199.808 463.681 200.423 462.814 200.423 461.8C200.423 460.79 199.808 459.923 198.928 459.548C198.628 459.418 198.301 459.349 197.953 459.349C197.67 459.349 197.4 459.398 197.15 459.483C196.183 459.813 195.486 460.729 195.486 461.8C195.486 462.875 196.183 463.791 197.15 464.12V501L178.031 481.998C178.113 481.937 178.195 481.876 178.277 481.815C184.151 477.528 187.961 470.615 187.961 462.818C187.961 459.43 187.244 456.214 185.95 453.307C183.869 448.633 180.305 444.752 175.848 442.269V431.17H221.237V442.399C216.559 445.062 212.88 449.264 210.906 454.304Z" fill="#10403B"/>
<path d="M235.202 316.397L220.532 324.959L218.296 326.265L201.049 316.07C201.053 316.029 201.053 315.988 201.053 315.947C201.053 314.432 199.854 313.204 198.374 313.204C196.894 313.204 195.694 314.432 195.694 315.947C195.694 317.466 196.894 318.694 198.374 318.694C198.966 318.694 199.514 318.498 199.958 318.162L215.968 327.624L200.346 336.738L198.798 335.85L197.01 336.898L176.216 324.762L161.881 316.397L198.542 295L235.202 316.397Z" fill="#10403B"/>
<path d="M221.237 330.101V352.704L198.743 364.831L175.848 352.403V329.916C183.471 334.008 191.091 338.097 198.714 342.19C205.736 338.421 212.753 334.656 219.775 330.888L221.237 330.101Z" fill="#10403B"/>
<g clip-path="url(#clip1_3625_1747)">
<path d="M263.042 342.241C262.613 342.498 262.179 342.76 261.75 343.018C240.838 355.61 219.919 368.202 199.007 380.794C192.255 376.866 185.498 372.939 178.746 369.011C157.734 379.339 136.722 389.672 115.71 400C114.807 398.312 113.903 396.62 113 394.932C134.831 383.919 156.658 372.903 178.489 361.89L198.878 373.152C218.614 361.483 238.349 349.817 258.085 338.144C258.731 337.765 259.377 337.383 260.024 337L263.042 342.241Z" fill="#10403B"/>
</g>
</g>
<defs>
<clipPath id="clip0_3625_1747">
<rect width="390" height="844" fill="white"/>
</clipPath>
<clipPath id="clip1_3625_1747">
<rect width="1" height="70" fill="white" transform="translate(113 330)"/>
</clipPath>
</defs>
</svg>
