<svg width="390" height="844" viewBox="0 0 390 844" fill="none" xmlns="http://www.w3.org/2000/svg">
<g clip-path="url(#clip0_3625_1909)">
<rect width="390" height="844" fill="#10403B"/>
<rect width="390" height="862" transform="matrix(-1 0 0 1 390 -18)" fill="#10403B"/>
<path d="M221.237 375.415V424.186H175.847V375.305C183.479 379.459 191.111 383.616 198.742 387.77L221.237 375.415Z" fill="#FEFEFE"/>
<path d="M210.905 454.304C209.86 456.954 209.291 459.841 209.291 462.858C209.291 470.398 212.855 477.108 218.398 481.42L218.004 481.815L198.927 500.772V464.059C199.808 463.681 200.422 462.813 200.422 461.799C200.422 460.79 199.808 459.923 198.927 459.548C198.628 459.418 198.3 459.348 197.952 459.348C197.669 459.348 197.399 459.397 197.149 459.483C196.182 459.813 195.486 460.729 195.486 461.799C195.486 462.874 196.182 463.79 197.149 464.12V501L178.03 481.998C178.112 481.937 178.194 481.876 178.276 481.815C184.151 477.528 187.96 470.614 187.96 462.817C187.96 459.43 187.244 456.213 185.949 453.306C183.868 448.632 180.304 444.752 175.847 442.269V431.17H221.237V442.399C216.558 445.062 212.88 449.263 210.905 454.304Z" fill="#FEFEFE"/>
<path d="M235.202 316.397L218.296 326.265L201.049 316.07C201.053 316.029 201.053 315.988 201.053 315.947C201.053 314.432 199.854 313.204 198.374 313.204C196.894 313.204 195.694 314.432 195.694 315.947C195.694 317.466 196.894 318.694 198.374 318.694C198.966 318.694 199.514 318.498 199.958 318.162L215.968 327.624L200.345 336.738L198.798 335.85L197.01 336.898L161.881 316.397L198.542 295L235.202 316.397Z" fill="#FEFEFE"/>
<path d="M221.237 330.101V352.704L198.742 364.831L175.847 352.403V329.916C183.471 334.008 191.09 338.097 198.714 342.189C205.735 338.421 212.753 334.656 219.774 330.888L221.237 330.101Z" fill="#FEFEFE"/>
<path d="M263.042 342.241C262.613 342.499 262.179 342.761 261.75 343.018C240.838 355.61 219.919 368.202 199.007 380.794C192.255 376.867 185.498 372.939 178.746 369.012C157.734 379.34 136.722 389.672 115.71 400C114.807 398.312 113.903 396.62 113 394.933C134.831 383.92 156.658 372.903 178.489 361.89L198.878 373.153C218.614 361.483 238.349 349.818 258.085 338.144C258.731 337.766 259.377 337.383 260.024 337L263.042 342.241Z" fill="#FEFEFE"/>
<path d="M277 330C273.598 335.835 270.192 341.669 266.79 347.5C263.213 342.015 259.641 336.529 256.064 331.044C263.043 330.695 270.021 330.349 277 330Z" fill="#FEFEFE"/>
<g clip-path="url(#clip1_3625_1909)">
<path d="M154.96 539V511H160.36V539H154.96ZM146.8 516.12V511H168.52V516.12H146.8ZM182.68 539.64C180.44 539.64 178.494 539.2 176.84 538.32C175.214 537.44 173.947 536.2 173.04 534.6C172.16 532.973 171.72 531.053 171.72 528.84V511H177.12V528.92C177.12 530.707 177.6 532.093 178.56 533.08C179.52 534.04 180.894 534.52 182.68 534.52C184.494 534.52 185.867 534.04 186.8 533.08C187.76 532.093 188.24 530.707 188.24 528.92V511H193.64V528.84C193.64 531.053 193.187 532.973 192.28 534.6C191.4 536.2 190.134 537.44 188.48 538.32C186.854 539.2 184.92 539.64 182.68 539.64ZM198.839 539V511H204.039V539H198.839ZM201.479 528.36V523.52H210.199C211.586 523.52 212.652 523.187 213.399 522.52C214.146 521.827 214.519 520.88 214.519 519.68H219.919C219.919 522.32 219.092 524.427 217.439 526C215.812 527.573 213.572 528.36 210.719 528.36H201.479ZM214.519 519.68C214.519 518.48 214.146 517.547 213.399 516.88C212.652 516.187 211.586 515.84 210.199 515.84H201.479V511H210.719C213.572 511 215.812 511.787 217.439 513.36C219.092 514.933 219.919 517.04 219.919 519.68H214.519ZM214.119 539L207.959 526.84L213.199 525.56L219.919 538.68V539H214.119ZM236.317 539.64C233.651 539.64 231.291 539.04 229.237 537.84C227.184 536.613 225.584 534.907 224.437 532.72C223.291 530.507 222.717 527.933 222.717 525C222.717 522.067 223.291 519.507 224.437 517.32C225.584 515.107 227.184 513.4 229.237 512.2C231.291 510.973 233.651 510.36 236.317 510.36C239.011 510.36 241.371 510.973 243.397 512.2C245.451 513.4 247.051 515.107 248.197 517.32C249.344 519.507 249.917 522.067 249.917 525C249.917 527.933 249.344 530.507 248.197 532.72C247.051 534.907 245.451 536.613 243.397 537.84C241.371 539.04 239.011 539.64 236.317 539.64ZM236.317 534.52C237.917 534.52 239.331 534.133 240.557 533.36C241.811 532.587 242.784 531.493 243.477 530.08C244.171 528.64 244.517 526.947 244.517 525C244.517 523.027 244.171 521.333 243.477 519.92C242.784 518.507 241.811 517.413 240.557 516.64C239.331 515.867 237.917 515.48 236.317 515.48C234.717 515.48 233.291 515.867 232.037 516.64C230.811 517.413 229.851 518.507 229.157 519.92C228.464 521.333 228.117 523.027 228.117 525C228.117 526.947 228.464 528.64 229.157 530.08C229.851 531.493 230.811 532.587 232.037 533.36C233.291 534.133 234.717 534.52 236.317 534.52Z" fill="white"/>
</g>
</g>
<defs>
<clipPath id="clip0_3625_1909">
<rect width="390" height="844" fill="white"/>
</clipPath>
<clipPath id="clip1_3625_1909">
<rect width="111" height="40" fill="white" transform="translate(145 509)"/>
</clipPath>
</defs>
</svg>
