<svg width="390" height="844" viewBox="0 0 390 844" fill="none" xmlns="http://www.w3.org/2000/svg">
<g clip-path="url(#clip0_3619_1759)">
<rect width="390" height="844" fill="#FEFEFE"/>
<path d="M210.906 -44.6959C209.861 -42.0453 209.292 -39.1587 209.292 -36.1417C209.292 -28.6013 212.856 -21.8915 218.398 -17.5798L218.005 -17.1848L198.928 1.77203V-34.9406C199.808 -35.3192 200.423 -36.1865 200.423 -37.2003C200.423 -38.21 199.808 -39.0772 198.928 -39.4518C198.628 -39.5821 198.301 -39.6513 197.953 -39.6513C197.67 -39.6513 197.4 -39.6024 197.15 -39.5169C196.183 -39.1871 195.486 -38.2711 195.486 -37.2003C195.486 -36.1254 196.183 -35.2093 197.15 -34.8795V2.00004L178.031 -17.0016C178.113 -17.0627 178.195 -17.1237 178.277 -17.1848C184.151 -21.4721 187.961 -28.3855 187.961 -36.1824C187.961 -39.5699 187.244 -42.7864 185.95 -45.6934C183.869 -50.3675 180.305 -54.2476 175.848 -56.7312V-67.8301H221.237V-56.6009C216.559 -53.9382 212.88 -49.7364 210.906 -44.6959Z" fill="#10403B"/>
</g>
<defs>
<clipPath id="clip0_3619_1759">
<rect width="390" height="844" fill="white"/>
</clipPath>
</defs>
</svg>
